G04 Layer_Color=65535*
%FSLAX25Y25*%
%MOIN*%
G70*
G01*
G75*
%ADD13C,0.01000*%
%ADD31C,0.02362*%
%ADD32C,0.00984*%
%ADD33C,0.00600*%
%ADD34C,0.00787*%
%ADD35C,0.00800*%
%ADD36R,0.40000X0.05000*%
D13*
X408787Y324000D02*
G03*
X408787Y324000I-12326J0D01*
G01*
X561287Y194000D02*
G03*
X561287Y194000I-12326J0D01*
G01*
X532826Y192539D02*
G03*
X532826Y192539I-12326J0D01*
G01*
X380800Y157700D02*
Y191300D01*
X406300D01*
Y157700D02*
Y191300D01*
X380800Y157700D02*
X406300D01*
X511500Y224500D02*
X522500D01*
X511500Y213500D02*
X522500D01*
Y305000D01*
X511500D02*
X522500D01*
X511500Y213500D02*
Y305000D01*
X423279Y316783D02*
X514780D01*
X423279D02*
Y327783D01*
X514780D01*
Y316783D02*
Y327783D01*
X503780Y316783D02*
Y327783D01*
X413500Y295000D02*
X424500D01*
X413500Y306000D02*
X424500D01*
X413500Y214500D02*
Y306000D01*
Y214500D02*
X424500D01*
Y306000D01*
X528158Y211100D02*
X555558D01*
Y313000D01*
X528158D02*
X555558D01*
X528158Y211100D02*
Y313000D01*
X417715Y359677D02*
X519615D01*
Y332277D02*
Y359677D01*
X417715Y332277D02*
X519615D01*
X417715D02*
Y359677D01*
X381214Y306813D02*
X408614D01*
X381214Y204913D02*
Y306813D01*
Y204913D02*
X408614D01*
Y306813D01*
X439799Y200890D02*
X485799D01*
X439799D02*
Y220890D01*
X485799D01*
Y200890D02*
Y220890D01*
X439055Y163543D02*
Y187205D01*
X430787Y163543D02*
X439055D01*
X430787D02*
Y187205D01*
X439055D01*
X435000D02*
Y190905D01*
X434803Y158740D02*
Y163622D01*
X446303Y159240D02*
Y164122D01*
X446500Y187705D02*
Y191405D01*
X442287Y187705D02*
X450555D01*
X442287Y164043D02*
Y187705D01*
Y164043D02*
X450555D01*
Y187705D01*
X473898Y163701D02*
Y187362D01*
X482165D01*
Y163701D02*
Y187362D01*
X473898Y163701D02*
X482165D01*
X477953Y160000D02*
Y163701D01*
X478150Y187284D02*
Y192165D01*
X411428Y186034D02*
Y203734D01*
X426628D01*
Y186034D02*
Y203734D01*
X411428Y186034D02*
X426628D01*
X487500Y185950D02*
X504500D01*
X487500D02*
Y201150D01*
X504500D01*
Y185950D02*
Y201150D01*
X437067Y203248D02*
Y222815D01*
X429075D02*
X437067D01*
X429075Y203248D02*
Y222815D01*
Y203248D02*
X437067D01*
X489390Y203405D02*
Y222972D01*
Y203405D02*
X497382D01*
Y222972D01*
X489390D02*
X497382D01*
X521299Y339998D02*
X519299D01*
X520299D01*
Y335000D01*
X519299Y334000D01*
X518300D01*
X517300Y335000D01*
X523298Y334000D02*
Y339998D01*
X526297D01*
X527297Y338998D01*
Y336999D01*
X526297Y335999D01*
X523298D01*
X529296Y334000D02*
X531295D01*
X530296D01*
Y339998D01*
X529296Y338998D01*
X528950Y363850D02*
Y369848D01*
X531949D01*
X532949Y368848D01*
Y366849D01*
X531949Y365849D01*
X528950D01*
X537947Y363850D02*
Y369848D01*
X534948Y366849D01*
X538947D01*
X485000Y183000D02*
Y188998D01*
X487999D01*
X488999Y187998D01*
Y185999D01*
X487999Y184999D01*
X485000D01*
X490998Y183000D02*
X492997D01*
X491998D01*
Y188998D01*
X490998Y187998D01*
X440338Y230343D02*
Y229343D01*
X442337Y227344D01*
X444337Y229343D01*
Y230343D01*
X442337Y227344D02*
Y224345D01*
X446336D02*
X448335D01*
X447335D01*
Y230343D01*
X446336Y229343D01*
X521100Y183398D02*
Y178400D01*
X522100Y177400D01*
X524099D01*
X525099Y178400D01*
Y183398D01*
X527098Y177400D02*
X529097D01*
X528098D01*
Y183398D01*
X527098Y182398D01*
X445149Y309748D02*
X444149Y310748D01*
X442150D01*
X441150Y309748D01*
Y308749D01*
X442150Y307749D01*
X444149D01*
X445149Y306749D01*
Y305750D01*
X444149Y304750D01*
X442150D01*
X441150Y305750D01*
X447148Y310748D02*
X451147D01*
X449147D01*
Y304750D01*
X457145Y309748D02*
X456145Y310748D01*
X454146D01*
X453146Y309748D01*
Y305750D01*
X454146Y304750D01*
X456145D01*
X457145Y305750D01*
X459144Y304750D02*
X461143D01*
X460144D01*
Y310748D01*
X459144Y309748D01*
X385299Y199798D02*
X384299Y200798D01*
X382300D01*
X381300Y199798D01*
Y198799D01*
X382300Y197799D01*
X384299D01*
X385299Y196799D01*
Y195800D01*
X384299Y194800D01*
X382300D01*
X381300Y195800D01*
X387298Y194800D02*
X389297D01*
X388298D01*
Y200798D01*
X387298Y199798D01*
X431300Y201200D02*
Y207198D01*
X434299D01*
X435299Y206198D01*
Y204199D01*
X434299Y203199D01*
X431300D01*
X433299D02*
X435299Y201200D01*
X437298Y206198D02*
X438298Y207198D01*
X440297D01*
X441297Y206198D01*
Y205199D01*
X440297Y204199D01*
X439297D01*
X440297D01*
X441297Y203199D01*
Y202200D01*
X440297Y201200D01*
X438298D01*
X437298Y202200D01*
X442800Y201800D02*
Y207798D01*
X445799D01*
X446799Y206798D01*
Y204799D01*
X445799Y203799D01*
X442800D01*
X444799D02*
X446799Y201800D01*
X452797D02*
X448798D01*
X452797Y205799D01*
Y206798D01*
X451797Y207798D01*
X449798D01*
X448798Y206798D01*
X474153Y202205D02*
Y208204D01*
X477152D01*
X478152Y207204D01*
Y205205D01*
X477152Y204205D01*
X474153D01*
X476152D02*
X478152Y202205D01*
X480151D02*
X482150D01*
X481150D01*
Y208204D01*
X480151Y207204D01*
X381664Y310363D02*
Y316361D01*
X384663D01*
X385663Y315361D01*
Y313362D01*
X384663Y312362D01*
X381664D01*
X391661Y316361D02*
X387662D01*
Y313362D01*
X389661Y314362D01*
X390661D01*
X391661Y313362D01*
Y311363D01*
X390661Y310363D01*
X388662D01*
X387662Y311363D01*
X418165Y363127D02*
Y369125D01*
X421164D01*
X422163Y368125D01*
Y366126D01*
X421164Y365126D01*
X418165D01*
X424163Y368125D02*
X425162Y369125D01*
X427162D01*
X428161Y368125D01*
Y367126D01*
X427162Y366126D01*
X426162D01*
X427162D01*
X428161Y365126D01*
Y364126D01*
X427162Y363127D01*
X425162D01*
X424163Y364126D01*
X528658Y316500D02*
Y322498D01*
X531657D01*
X532657Y321499D01*
Y319499D01*
X531657Y318500D01*
X528658D01*
X538655Y316500D02*
X534656D01*
X538655Y320499D01*
Y321499D01*
X537655Y322498D01*
X535656D01*
X534656Y321499D01*
X411928Y213232D02*
Y207234D01*
X414927D01*
X415926Y208233D01*
Y212232D01*
X414927Y213232D01*
X411928D01*
X421924Y207234D02*
X417926D01*
X421924Y211233D01*
Y212232D01*
X420925Y213232D01*
X418925D01*
X417926Y212232D01*
X488000Y210698D02*
Y204700D01*
X490999D01*
X491999Y205700D01*
Y209698D01*
X490999Y210698D01*
X488000D01*
X493998Y204700D02*
X495997D01*
X494998D01*
Y210698D01*
X493998Y209698D01*
X388599Y344798D02*
X387599Y345798D01*
X385600D01*
X384600Y344798D01*
Y340800D01*
X385600Y339800D01*
X387599D01*
X388599Y340800D01*
X394597Y345798D02*
X390598D01*
Y342799D01*
X392597Y343799D01*
X393597D01*
X394597Y342799D01*
Y340800D01*
X393597Y339800D01*
X391598D01*
X390598Y340800D01*
X433609Y231309D02*
X432609Y232308D01*
X430610D01*
X429610Y231309D01*
Y227310D01*
X430610Y226310D01*
X432609D01*
X433609Y227310D01*
X438607Y226310D02*
Y232308D01*
X435608Y229309D01*
X439607D01*
X493845Y231509D02*
X492845Y232508D01*
X490846D01*
X489847Y231509D01*
Y227510D01*
X490846Y226510D01*
X492845D01*
X493845Y227510D01*
X495845Y231509D02*
X496844Y232508D01*
X498843D01*
X499843Y231509D01*
Y230509D01*
X498843Y229509D01*
X497844D01*
X498843D01*
X499843Y228510D01*
Y227510D01*
X498843Y226510D01*
X496844D01*
X495845Y227510D01*
X541099Y214798D02*
X540099Y215798D01*
X538100D01*
X537100Y214798D01*
Y210800D01*
X538100Y209800D01*
X540099D01*
X541099Y210800D01*
X547097Y209800D02*
X543098D01*
X547097Y213799D01*
Y214798D01*
X546097Y215798D01*
X544098D01*
X543098Y214798D01*
X512699Y213398D02*
X511699Y214398D01*
X509700D01*
X508700Y213398D01*
Y209400D01*
X509700Y208400D01*
X511699D01*
X512699Y209400D01*
X514698Y208400D02*
X516697D01*
X515698D01*
Y214398D01*
X514698Y213398D01*
X414000Y314498D02*
X417999Y310500D01*
X414000D02*
X417999Y314498D01*
X414000Y312499D02*
X417999D01*
X415999Y310500D02*
Y314498D01*
X419998D02*
X420998Y315498D01*
X422997D01*
X423997Y314498D01*
Y313499D01*
X422997Y312499D01*
X421997D01*
X422997D01*
X423997Y311499D01*
Y310500D01*
X422997Y309500D01*
X420998D01*
X419998Y310500D01*
X423779Y336282D02*
X427778Y332283D01*
X423779D02*
X427778Y336282D01*
X423779Y334282D02*
X427778D01*
X425779Y332283D02*
Y336282D01*
X433776Y331283D02*
X429778D01*
X433776Y335282D01*
Y336282D01*
X432777Y337281D01*
X430777D01*
X429778Y336282D01*
X512000Y313498D02*
X515999Y309500D01*
X512000D02*
X515999Y313498D01*
X512000Y311499D02*
X515999D01*
X513999Y309500D02*
Y313498D01*
X517998Y308500D02*
X519997D01*
X518998D01*
Y314498D01*
X517998Y313498D01*
D31*
X459201Y295693D02*
G03*
X459201Y295693I-1181J0D01*
G01*
D32*
X447882Y300043D02*
G03*
X447882Y300043I-492J0D01*
G01*
D33*
X516614Y323169D02*
Y328169D01*
X519114Y330669D01*
X524114D02*
X526614Y328169D01*
X519114Y330669D02*
X524114D01*
X516614Y318169D02*
X519114Y320669D01*
X516614Y313169D02*
Y318169D01*
Y313169D02*
X519114Y310669D01*
X524114D01*
X526614Y313169D01*
Y318169D01*
X524114Y320669D02*
X526614Y318169D01*
X516614Y323169D02*
X519114Y320669D01*
X524114D01*
X526614Y323169D01*
Y328169D01*
D34*
X535500Y320500D02*
X545500D01*
X535500D02*
Y360500D01*
X545500Y320500D02*
Y360500D01*
X535500D02*
X545500D01*
X486000Y159500D02*
Y169500D01*
X516000D01*
Y159500D02*
Y169500D01*
X486000Y159500D02*
X516000D01*
X454083Y228370D02*
X476917D01*
X454083Y299630D02*
X476917D01*
Y228370D02*
Y299630D01*
X454083Y228370D02*
Y299630D01*
D35*
X520500Y174000D02*
X560500D01*
X520500Y156500D02*
Y174000D01*
Y156500D02*
X560500D01*
Y174000D01*
D36*
X540500Y159000D02*
D03*
M02*
