G04 Layer_Physical_Order=1*
G04 Layer_Color=255*
%FSLAX25Y25*%
%MOIN*%
G70*
G01*
G75*
%ADD10O,0.10236X0.02756*%
%ADD11C,0.02000*%
%ADD12C,0.05000*%
%ADD13C,0.01000*%
G04:AMPARAMS|DCode=14|XSize=80mil|YSize=60mil|CornerRadius=0mil|HoleSize=0mil|Usage=FLASHONLY|Rotation=0.000|XOffset=0mil|YOffset=0mil|HoleType=Round|Shape=Octagon|*
%AMOCTAGOND14*
4,1,8,0.04000,-0.01500,0.04000,0.01500,0.02500,0.03000,-0.02500,0.03000,-0.04000,0.01500,-0.04000,-0.01500,-0.02500,-0.03000,0.02500,-0.03000,0.04000,-0.01500,0.0*
%
%ADD14OCTAGOND14*%

%ADD15C,0.06000*%
%ADD16O,0.09843X0.06693*%
G04:AMPARAMS|DCode=17|XSize=66.93mil|YSize=98.43mil|CornerRadius=0mil|HoleSize=0mil|Usage=FLASHONLY|Rotation=90.000|XOffset=0mil|YOffset=0mil|HoleType=Round|Shape=Octagon|*
%AMOCTAGOND17*
4,1,8,-0.04921,-0.01673,-0.04921,0.01673,-0.03248,0.03347,0.03248,0.03347,0.04921,0.01673,0.04921,-0.01673,0.03248,-0.03347,-0.03248,-0.03347,-0.04921,-0.01673,0.0*
%
%ADD17OCTAGOND17*%

%ADD18O,0.06693X0.09843*%
G04:AMPARAMS|DCode=19|XSize=66.93mil|YSize=98.43mil|CornerRadius=0mil|HoleSize=0mil|Usage=FLASHONLY|Rotation=0.000|XOffset=0mil|YOffset=0mil|HoleType=Round|Shape=Octagon|*
%AMOCTAGOND19*
4,1,8,-0.01673,0.04921,0.01673,0.04921,0.03347,0.03248,0.03347,-0.03248,0.01673,-0.04921,-0.01673,-0.04921,-0.03347,-0.03248,-0.03347,0.03248,-0.01673,0.04921,0.0*
%
%ADD19OCTAGOND19*%

%ADD20C,0.11811*%
G04:AMPARAMS|DCode=21|XSize=66.93mil|YSize=86.61mil|CornerRadius=0mil|HoleSize=0mil|Usage=FLASHONLY|Rotation=90.000|XOffset=0mil|YOffset=0mil|HoleType=Round|Shape=Octagon|*
%AMOCTAGOND21*
4,1,8,-0.04331,-0.01673,-0.04331,0.01673,-0.02658,0.03347,0.02658,0.03347,0.04331,0.01673,0.04331,-0.01673,0.02658,-0.03347,-0.02658,-0.03347,-0.04331,-0.01673,0.0*
%
%ADD21OCTAGOND21*%

%ADD22O,0.08661X0.06693*%
%ADD23O,0.06693X0.08661*%
G04:AMPARAMS|DCode=24|XSize=66.93mil|YSize=86.61mil|CornerRadius=0mil|HoleSize=0mil|Usage=FLASHONLY|Rotation=180.000|XOffset=0mil|YOffset=0mil|HoleType=Round|Shape=Octagon|*
%AMOCTAGOND24*
4,1,8,0.01673,-0.04331,-0.01673,-0.04331,-0.03347,-0.02658,-0.03347,0.02658,-0.01673,0.04331,0.01673,0.04331,0.03347,0.02658,0.03347,-0.02658,0.01673,-0.04331,0.0*
%
%ADD24OCTAGOND24*%

%ADD25O,0.06000X0.05000*%
%ADD26C,0.06299*%
%ADD27O,0.07000X0.09000*%
%ADD28C,0.07087*%
%ADD29C,0.06693*%
D10*
X483610Y231500D02*
D03*
Y236500D02*
D03*
Y241500D02*
D03*
Y246500D02*
D03*
Y251500D02*
D03*
Y256500D02*
D03*
Y261500D02*
D03*
Y266500D02*
D03*
Y271500D02*
D03*
Y276500D02*
D03*
Y281500D02*
D03*
Y286500D02*
D03*
Y291500D02*
D03*
Y296500D02*
D03*
X447390Y231500D02*
D03*
Y236500D02*
D03*
Y241500D02*
D03*
Y246500D02*
D03*
Y251500D02*
D03*
Y256500D02*
D03*
Y261500D02*
D03*
Y266500D02*
D03*
Y271500D02*
D03*
Y276500D02*
D03*
Y281500D02*
D03*
Y286500D02*
D03*
Y291500D02*
D03*
Y296500D02*
D03*
D11*
X540331Y325669D02*
X540500Y325500D01*
X521614Y325669D02*
X540331D01*
X508000Y315354D02*
Y330945D01*
Y307118D02*
Y315354D01*
X521299D02*
X521614Y315669D01*
X508000Y315354D02*
X521299D01*
X507126Y293183D02*
X513443Y299500D01*
X507126Y290276D02*
Y293183D01*
X498350Y281500D02*
X507126Y290276D01*
X483610Y281500D02*
X498350D01*
X428000Y319323D02*
Y322284D01*
X447390Y231500D02*
X458193D01*
X461260Y234567D01*
X485079Y201417D02*
Y203583D01*
X485039Y201457D02*
X485079Y201417D01*
X501000Y201457D02*
Y214945D01*
Y194550D02*
Y201457D01*
X458028Y271500D02*
X458858Y270669D01*
X447390Y271500D02*
X458028D01*
X437520Y264331D02*
X439689Y266500D01*
X447390D01*
Y246500D02*
X461378Y246575D01*
X429445Y241500D02*
X447390D01*
X420945Y250000D02*
X429445Y241500D01*
X419000Y250000D02*
X420945D01*
X426610Y236500D02*
X447390D01*
X422610Y240500D02*
X426610Y236500D01*
X419000Y240500D02*
X422610D01*
X447390Y286500D02*
X456736D01*
X457433Y287197D01*
X409862Y339016D02*
X422950D01*
X409862Y323780D02*
Y339016D01*
X409571Y323488D02*
X409862Y323780D01*
X401500Y323488D02*
X409571D01*
X433150Y336141D02*
Y345777D01*
X483610Y291929D02*
X500276D01*
X483610Y291500D02*
Y291929D01*
Y286500D02*
X491697D01*
X430118Y283543D02*
X438075Y291500D01*
X430118Y260500D02*
Y283543D01*
X419000Y260500D02*
X430118D01*
X426496Y284164D02*
X438832Y296500D01*
X426496Y270630D02*
Y284164D01*
X419130Y270630D02*
X426496D01*
X447390Y281500D02*
X460433D01*
X447390Y276500D02*
X463898D01*
X442736Y155650D02*
X446550D01*
X442480Y155905D02*
X442736Y155650D01*
X442480Y155905D02*
Y187520D01*
X427638D02*
X442480D01*
X424500Y190657D02*
X427638Y187520D01*
X424500Y190657D02*
Y191772D01*
X446287Y195187D02*
X446450Y195350D01*
X501000Y194550D02*
X516282D01*
X519587Y197854D01*
X520264D01*
X530500Y159839D02*
Y166500D01*
X488102Y224126D02*
X491260Y227284D01*
X479130Y241500D02*
X483610D01*
X476492Y244138D02*
X479130Y241500D01*
X483610Y236500D02*
X483653Y236457D01*
X490472D01*
X491260Y235669D01*
Y227284D02*
Y235669D01*
X424323Y224126D02*
X488102D01*
X420197Y220000D02*
X424323Y224126D01*
X419000Y220000D02*
X420197D01*
X483610Y228059D02*
Y231500D01*
X482677Y227126D02*
X483610Y228059D01*
X421874Y227126D02*
X482677D01*
X419000Y230000D02*
X421874Y227126D01*
X392550Y210950D02*
X430467D01*
X466689Y261500D02*
X467011Y261822D01*
X447390Y261500D02*
X466689D01*
X447390Y256500D02*
X470240D01*
X470492Y256752D01*
X447390Y251500D02*
X473417D01*
X473492Y251575D01*
X430467Y210950D02*
X433130Y208287D01*
X434950Y194850D02*
X435450Y195350D01*
X446450D01*
X491000Y164500D02*
X501000D01*
Y194550D01*
X498012Y217933D02*
X501000Y214945D01*
X493327Y217933D02*
X498012D01*
X438075Y291500D02*
X447390D01*
X438832Y296500D02*
X447390D01*
X419000Y270500D02*
X419130Y270630D01*
X417950Y301050D02*
X419000Y300000D01*
X392450Y301050D02*
Y303041D01*
X525520Y220898D02*
X529467Y216950D01*
X525520Y220898D02*
Y221386D01*
X553409Y193685D02*
Y213090D01*
X548910Y307591D02*
Y355500D01*
X540500D02*
X548910D01*
X516500D02*
X540500D01*
X485748Y307087D02*
X508032D01*
X517000Y219500D02*
X523634D01*
X525520Y221386D01*
Y307118D01*
X508000D02*
X525520D01*
X508000D02*
X508032Y307087D01*
X484803Y306142D02*
X485748Y307087D01*
X484803Y297807D02*
Y306142D01*
Y297807D02*
X485591Y297020D01*
Y296500D02*
Y297020D01*
X483610Y296500D02*
X485591D01*
X513443Y299500D02*
X517000D01*
Y229000D02*
Y230323D01*
X500823Y246500D02*
X517000Y230323D01*
X483610Y246500D02*
X500823D01*
X504500Y251500D02*
X517000Y239000D01*
X483610Y251500D02*
X504500D01*
X509500Y256500D02*
X517000Y249000D01*
X483610Y256500D02*
X509500D01*
X513874Y259000D02*
X517000D01*
X511374Y261500D02*
X513874Y259000D01*
X483610Y261500D02*
X511374D01*
X514461Y269500D02*
X517000D01*
X511461Y266500D02*
X514461Y269500D01*
X483610Y266500D02*
X511461D01*
X508626Y271500D02*
X516126Y279000D01*
X483610Y271500D02*
X508626D01*
X516126Y279000D02*
X517000D01*
X504000Y276500D02*
X517000Y289500D01*
X483610Y276500D02*
X504000D01*
X448500Y321224D02*
Y322284D01*
Y321224D02*
X467011Y302713D01*
Y261822D02*
Y302713D01*
X458000Y316961D02*
Y322284D01*
Y316961D02*
X470492Y304468D01*
Y256752D02*
Y304468D01*
X468500Y310949D02*
Y322284D01*
Y310949D02*
X473492Y305957D01*
Y251575D02*
Y305957D01*
X476492Y244138D02*
Y306256D01*
X488500Y318264D01*
Y322284D01*
X485039Y201457D02*
X501000D01*
X422950Y333979D02*
Y339016D01*
Y345777D01*
X391736Y309567D02*
Y323488D01*
X463898Y276500D02*
Y300102D01*
X448047Y315953D02*
X463898Y300102D01*
X391736Y309567D02*
X443898D01*
X457433Y296031D01*
Y287197D02*
Y296031D01*
X438779Y318937D02*
Y322284D01*
Y318937D02*
X441764Y315953D01*
X448047D01*
X428000Y319323D02*
X434370Y312953D01*
X446024D01*
X460433Y298543D01*
Y281500D02*
Y298543D01*
X513515Y352515D02*
X516500Y355500D01*
X513515Y345877D02*
Y352515D01*
X422950Y333979D02*
X425984Y330945D01*
X508000D01*
X443150Y339094D02*
Y345677D01*
X536996Y345500D02*
X540500D01*
X541958Y306900D02*
X548219D01*
X549700Y216800D02*
X553409Y213090D01*
X542058Y216800D02*
X549700D01*
X541908Y216950D02*
X542058Y216800D01*
X529467Y216950D02*
X541908D01*
X433150Y336141D02*
X434646Y334646D01*
X539646D01*
X540500Y335500D01*
X443150Y339094D02*
X444134Y338110D01*
X529606D01*
X536996Y345500D01*
X478050Y157150D02*
X479137Y156063D01*
X526724D01*
X530500Y159839D01*
D12*
X437677Y203740D02*
X483146D01*
X433130Y208287D02*
X437677Y203740D01*
D13*
X378000Y147500D02*
Y153498D01*
X380999D01*
X381999Y152498D01*
Y150499D01*
X380999Y149499D01*
X378000D01*
X379999D02*
X381999Y147500D01*
X386997D02*
X384998D01*
X383998Y148500D01*
Y150499D01*
X384998Y151499D01*
X386997D01*
X387997Y150499D01*
Y149499D01*
X383998D01*
X389996Y147500D02*
X392995D01*
X393995Y148500D01*
X392995Y149499D01*
X390996D01*
X389996Y150499D01*
X390996Y151499D01*
X393995D01*
X398993Y147500D02*
X396994D01*
X395994Y148500D01*
Y150499D01*
X396994Y151499D01*
X398993D01*
X399993Y150499D01*
Y149499D01*
X395994D01*
X402992Y152498D02*
Y151499D01*
X401992D01*
X403992D01*
X402992D01*
Y148500D01*
X403992Y147500D01*
X378000Y344386D02*
X380886Y341500D01*
X379443Y342943D01*
X380886Y344386D01*
X378000Y341500D01*
X382329Y344386D02*
X385215D01*
X382329Y341500D01*
X385215D01*
X388823D02*
X387380D01*
X386659Y342221D01*
Y343665D01*
X387380Y344386D01*
X388823D01*
X389545Y343665D01*
Y342943D01*
X386659D01*
X390988Y341500D02*
Y344386D01*
X393153D01*
X393874Y343665D01*
Y341500D01*
X395317Y344386D02*
X398203D01*
X395317Y341500D01*
X398203D01*
X399646Y344386D02*
X402533D01*
X399646Y341500D01*
X402533D01*
X404697Y344386D02*
X406141D01*
X406862Y343665D01*
Y341500D01*
X404697D01*
X403976Y342221D01*
X404697Y342943D01*
X406862D01*
X378000Y355329D02*
Y351000D01*
X380165D01*
X380886Y351722D01*
Y352443D01*
X380165Y353165D01*
X378000D01*
X380165D01*
X380886Y353886D01*
Y354608D01*
X380165Y355329D01*
X378000D01*
X382329Y353886D02*
Y351722D01*
X383051Y351000D01*
X385215D01*
Y350278D01*
X384494Y349557D01*
X383772D01*
X385215Y351000D02*
Y353886D01*
X382436Y365920D02*
X381452Y366904D01*
X379484D01*
X378500Y365920D01*
Y361984D01*
X379484Y361000D01*
X381452D01*
X382436Y361984D01*
X384404Y364936D02*
Y361000D01*
Y362968D01*
X385387Y363952D01*
X386371Y364936D01*
X387355D01*
X393259Y361000D02*
X391291D01*
X390307Y361984D01*
Y363952D01*
X391291Y364936D01*
X393259D01*
X394243Y363952D01*
Y362968D01*
X390307D01*
X397195Y364936D02*
X399163D01*
X400146Y363952D01*
Y361000D01*
X397195D01*
X396211Y361984D01*
X397195Y362968D01*
X400146D01*
X403098Y365920D02*
Y364936D01*
X402114D01*
X404082D01*
X403098D01*
Y361984D01*
X404082Y361000D01*
X409986D02*
X408018D01*
X407034Y361984D01*
Y363952D01*
X408018Y364936D01*
X409986D01*
X410970Y363952D01*
Y362968D01*
X407034D01*
X486912Y151731D02*
X485912Y152730D01*
X483913D01*
X482913Y151731D01*
Y147732D01*
X483913Y146732D01*
X485912D01*
X486912Y147732D01*
Y149731D01*
X484913D01*
X488911Y146732D02*
Y152730D01*
X492910Y146732D01*
Y152730D01*
X494909D02*
Y146732D01*
X497908D01*
X498908Y147732D01*
Y151731D01*
X497908Y152730D01*
X494909D01*
X506906Y149731D02*
X510904D01*
X508905Y151731D02*
Y147732D01*
X516902Y152730D02*
X512904D01*
Y149731D01*
X514903Y150731D01*
X515903D01*
X516902Y149731D01*
Y147732D01*
X515903Y146732D01*
X513903D01*
X512904Y147732D01*
X518902Y152730D02*
Y148732D01*
X520901Y146732D01*
X522900Y148732D01*
Y152730D01*
D14*
X521614Y315669D02*
D03*
Y325669D02*
D03*
D15*
X461260Y234567D02*
D03*
X437520Y264331D02*
D03*
X458858Y270669D02*
D03*
X492126Y286929D02*
D03*
X500276Y292205D02*
D03*
D16*
X540500Y355500D02*
D03*
Y345500D02*
D03*
Y335500D02*
D03*
X542058Y227000D02*
D03*
X542158Y237000D02*
D03*
X541958Y246800D02*
D03*
X542058Y257000D02*
D03*
X542158Y266900D02*
D03*
Y276900D02*
D03*
X542058Y287000D02*
D03*
X541858Y297100D02*
D03*
X541958Y306900D02*
D03*
X394714Y290913D02*
D03*
X394614Y280913D02*
D03*
X394814Y271113D02*
D03*
X394714Y260913D02*
D03*
X394614Y251013D02*
D03*
Y241013D02*
D03*
X394714Y230913D02*
D03*
X394914Y220813D02*
D03*
X394814Y211013D02*
D03*
D17*
X540500Y325500D02*
D03*
X542058Y216800D02*
D03*
X394714Y301113D02*
D03*
D18*
X511000Y164500D02*
D03*
X501000D02*
D03*
X513515Y345877D02*
D03*
X503715Y345977D02*
D03*
X493615Y345777D02*
D03*
X483515Y345677D02*
D03*
X473515D02*
D03*
X463615Y345777D02*
D03*
X453415Y345877D02*
D03*
X443615Y345677D02*
D03*
X433615Y345777D02*
D03*
D19*
X491000Y164500D02*
D03*
X423415Y345777D02*
D03*
D20*
X384600Y162700D02*
D03*
X402400Y162300D02*
D03*
X384800Y186700D02*
D03*
X402300Y186500D02*
D03*
D21*
X517000Y219500D02*
D03*
X419000Y300000D02*
D03*
D22*
X517000Y229000D02*
D03*
Y239000D02*
D03*
Y249000D02*
D03*
Y259000D02*
D03*
Y269500D02*
D03*
Y279000D02*
D03*
Y289500D02*
D03*
Y299500D02*
D03*
X419000Y290500D02*
D03*
Y280500D02*
D03*
Y270500D02*
D03*
Y260500D02*
D03*
Y250000D02*
D03*
Y240500D02*
D03*
Y230000D02*
D03*
Y220000D02*
D03*
D23*
X428780Y322284D02*
D03*
X438779D02*
D03*
X449279D02*
D03*
X458779D02*
D03*
X469279D02*
D03*
X479280D02*
D03*
X489280D02*
D03*
X499279D02*
D03*
D24*
X508779D02*
D03*
D25*
X461378Y246575D02*
D03*
D26*
X472299Y210890D02*
D03*
X452976Y211000D02*
D03*
D27*
X530500Y166500D02*
D03*
X540500D02*
D03*
X550500D02*
D03*
D28*
X434950Y194850D02*
D03*
X435050Y155150D02*
D03*
X446550Y155650D02*
D03*
X446450Y195350D02*
D03*
X478003Y156055D02*
D03*
X477903Y195756D02*
D03*
X414528Y194134D02*
D03*
X424528D02*
D03*
X501000Y194550D02*
D03*
X491000Y194450D02*
D03*
X543646Y193764D02*
D03*
X553409Y193685D02*
D03*
X520264Y197854D02*
D03*
X520185Y188091D02*
D03*
D29*
X401500Y323488D02*
D03*
X391736D02*
D03*
X433130Y208287D02*
D03*
X433091Y217933D02*
D03*
X493327Y217933D02*
D03*
X493366Y208287D02*
D03*
M02*
