M48
;Layer_Color=9474304
;FILE_FORMAT=2:5
INCH,LZ
;TYPE=PLATED
T1F00S00C0.02362
T2F00S00C0.02756
T3F00S00C0.03000
T4F00S00C0.03150
T5F00S00C0.03543
T6F00S00C0.03937
T7F00S00C0.04000
%
T01
X0493366Y0208287
X0493327Y0217933
X0520264Y0197854
X0520185Y0188091
X0543646Y0193764
X0553409Y0193685
X0500276Y0292205
X0492126Y0286929
X0458858Y0270669
X0461378Y0246575
X046126Y0234567
X0433091Y0217933
X043313Y0208287
X043752Y0264331
X04015Y0323488
X0391736
T02
X0478003Y0156055
T03
X043505Y015515
X044655Y015565
X0477903Y0195756
X0491Y019445
X0501Y019455
X0517Y02195
Y0229
Y0239
Y0249
Y0259
Y02695
Y0279
Y02895
Y02995
X05305Y01665
X05405
X05505
X044645Y019535
X043495Y019485
X0424528Y0194134
X0414528
X0419Y022
Y023
Y02405
Y025
Y02605
Y02705
Y02805
Y02905
Y03
X042878Y0322284
X0438779
X0449279
X0458779
X0469279
X047928
X048928
X0499279
X0508779
T04
X0472299Y021089
X0452976Y0211
T05
X0491Y01645
X0501
X0511
X05405Y03255
Y03355
Y03455
Y03555
T06
X0542058Y02168
Y0227
X0542158Y0237
X0541958Y02468
X0542058Y0257
X0542158Y02669
Y02769
X0542058Y0287
X0541858Y02971
X0541958Y03069
X0394714Y0301113
Y0290913
X0394614Y0280913
X0394814Y0271113
X0394714Y0260913
X0394614Y0251013
Y0241013
X0394714Y0230913
X0394914Y0220813
X0394814Y0211013
X04023Y01865
X03848Y01867
X03846Y01627
X04024Y01623
X0423415Y0345777
X0433615
X0443615Y0345677
X0453415Y0345877
X0463615Y0345777
X0473515Y0345677
X0483515
X0493615Y0345777
X0503715Y0345977
X0513515Y0345877
T07
X0521614Y0315669
Y0325669
M30
